<?xml version="1.0" encoding="UTF-8"?>
<svg version="1.1" xmlns="http://www.w3.org/2000/svg" width="1024" height="1024">
<path d="M0 0 C337.92 0 675.84 0 1024 0 C1024 337.92 1024 675.84 1024 1024 C686.08 1024 348.16 1024 0 1024 C0 686.08 0 348.16 0 0 Z " fill="#FEFEFE" transform="translate(0,0)"/>
<path d="M0 0 C9.85264439 7.55504556 16.72451461 17.61503701 18.64453125 29.984375 C19.56671875 47.49784807 13.78871101 64.39867664 9.03515625 81.05859375 C10.04618408 81.14838501 10.04618408 81.14838501 11.07763672 81.23999023 C11.96854004 81.32321533 12.85944336 81.40644043 13.77734375 81.4921875 C14.6576123 81.57267334 15.53788086 81.65315918 16.44482422 81.73608398 C19.80714575 82.15471044 22.81854747 83.00969958 26.03515625 84.05859375 C26.15007416 83.38254089 26.26499207 82.70648804 26.38339233 82.00994873 C27.51440323 75.55148941 28.89822419 69.22423345 30.57421875 62.88671875 C30.81876801 61.9612323 31.06331726 61.03574585 31.3152771 60.08221436 C31.83199543 58.13872485 32.35144638 56.19595996 32.87353516 54.25390625 C33.39545334 52.29970981 33.90921358 50.34331525 34.41455078 48.38476562 C39.14233604 30.06498274 45.18573184 11.49921446 62.00976562 0.80322266 C74.89095862 -6.61772854 88.27674458 -10.57701809 103.17578125 -7.06640625 C116.23208058 -3.51444983 127.07090884 2.8622537 135.03515625 14.05859375 C146.82729077 35.60716799 140.87590192 54.67983131 134.62139893 76.96563721 C133.06059068 82.53790951 131.53103533 88.11864151 130.01513672 93.70327759 C129.48265747 95.64708447 128.93482893 97.58666575 128.38671875 99.52612305 C128.06316406 100.704729 127.73960937 101.88333496 127.40625 103.09765625 C127.1167749 104.13100098 126.8272998 105.1643457 126.52905273 106.22900391 C125.9955342 109.28559305 125.966505 111.14528411 127.03515625 114.05859375 C128.75533912 115.50425815 128.75533912 115.50425815 131.015625 116.41796875 C131.84296143 116.80654053 132.67029785 117.1951123 133.52270508 117.59545898 C134.41368896 117.99579346 135.30467285 118.39612793 136.22265625 118.80859375 C144.99028583 122.97149006 153.08945695 127.49683237 161.03515625 133.05859375 C161.63634277 133.4772168 162.2375293 133.89583984 162.85693359 134.32714844 C194.17133502 156.30016665 233.25697518 191.23435219 242.5625 229.9609375 C244.80324134 244.64612664 243.16022442 260.11817865 234.78515625 272.72265625 C224.50776424 286.44113934 210.76764397 295.93131871 193.58203125 298.77734375 C177.0394855 300.60412794 161.72774342 296.72328678 148.34765625 286.74609375 C139.4363246 279.28467257 132.71426594 271.21111145 126.34765625 261.49609375 C124.90800902 259.32695652 123.46663828 257.15896206 122.0234375 254.9921875 C121.0039502 253.45594727 121.0039502 253.45594727 119.96386719 251.88867188 C118.29597488 249.44130383 116.56836138 247.08445048 114.7578125 244.7421875 C112.08473775 241.24753604 110.10056205 237.62011326 108.16015625 233.68359375 C104.79952446 227.14194314 100.88319568 221.61054074 96.03515625 216.05859375 C95.51824219 215.39859375 95.00132812 214.73859375 94.46875 214.05859375 C81.92822273 198.46936687 62.35832149 188.20201475 44.03515625 181.05859375 C44.05610352 180.41422363 44.07705078 179.76985352 44.09863281 179.10595703 C44.18276623 176.13200043 44.2341197 173.15829533 44.28515625 170.18359375 C44.31867188 169.17039063 44.3521875 168.1571875 44.38671875 167.11328125 C44.53077496 155.87689658 40.86433723 147.13582799 33.03515625 139.05859375 C23.10728928 130.63210553 11.78227017 127.85715167 -1 128.83544922 C-13.26303198 130.22814445 -23.57468898 136.28500733 -31.3671875 145.75390625 C-35.84632647 152.21525586 -39.22171019 159.3888061 -40.96484375 167.05859375 C-42.83967526 167.35134153 -44.71472308 167.64270391 -46.58984375 167.93359375 C-48.38808594 168.21396484 -48.38808594 168.21396484 -50.22265625 168.5 C-52.54696122 168.8469474 -54.87486361 169.17152393 -57.20703125 169.4609375 C-81.49201831 172.5183999 -107.87454769 179.36970102 -128.71484375 192.62109375 C-134.63242558 196.23114027 -140.71845132 197.9328494 -147.33227539 199.79589844 C-155.59404412 202.15264326 -163.25283106 205.29279194 -170.96484375 209.05859375 C-171.99472412 209.55915283 -171.99472412 209.55915283 -173.04541016 210.06982422 C-199.44720547 223.07369355 -221.85546582 241.9011826 -239.96484375 265.05859375 C-240.94130859 266.23421875 -240.94130859 266.23421875 -241.9375 267.43359375 C-252.26155694 279.91277192 -260.48105649 293.73517795 -267.96484375 308.05859375 C-268.34495605 308.7846582 -268.72506836 309.51072266 -269.11669922 310.25878906 C-287.28210226 345.48627348 -298.9778188 387.59663282 -299.16796875 427.359375 C-299.17366882 428.31643845 -299.1793689 429.27350189 -299.1852417 430.25956726 C-299.19462942 432.27728188 -299.20120067 434.29501141 -299.20507812 436.31274414 C-299.2146976 439.3253229 -299.24574584 442.33719254 -299.27734375 445.34960938 C-299.37343025 462.78756598 -297.4378273 479.66763278 -293.27734375 496.62109375 C-293.02388184 497.65991699 -292.77041992 498.69874023 -292.50927734 499.76904297 C-287.36645963 519.93616918 -278.57050288 538.37507917 -266.1640625 555.03515625 C-262.51371762 560.05356999 -260.23393487 564.83607806 -258.21484375 570.68359375 C-248.39137365 597.79291898 -225.39967285 615.60626412 -200.11181641 627.49975586 C-189.66616316 632.24855574 -178.35859944 637.19791994 -166.96484375 639.05859375 C-167.06023437 640.30253906 -167.155625 641.54648437 -167.25390625 642.828125 C-168.10314527 655.01770731 -168.77406185 666.34207265 -161.96484375 677.05859375 C-161.41957031 677.94998047 -161.41957031 677.94998047 -160.86328125 678.859375 C-155.93231582 685.68104803 -146.12833993 690.35742337 -137.96484375 692.05859375 C-123.95593032 693.35525943 -111.82338426 692.11269821 -100.02734375 683.87109375 C-89.72752137 675.13699529 -86.43794648 661.50801436 -83.27099609 648.92114258 C-82.06335106 644.15710106 -82.06335106 644.15710106 -80.96484375 643.05859375 C-78.05163003 642.46437129 -75.13829254 641.91031248 -72.21484375 641.37109375 C-41.82869717 635.50565664 -13.49655724 624.64733005 11.77172852 606.59472656 C16.22037566 603.48021822 20.87127246 600.92127381 25.66015625 598.37109375 C41.93378521 589.58011092 55.93545307 578.03119013 69.03515625 565.05859375 C69.63602051 564.46949219 70.23688477 563.88039063 70.85595703 563.2734375 C84.48040496 549.82006867 94.38549622 533.95810488 103.55078125 517.3046875 C107.26872588 510.77785613 111.77449043 505.40949397 117.03515625 500.05859375 C117.67324219 499.40761719 118.31132813 498.75664063 118.96875 498.0859375 C129.71760814 487.91809872 143.80899904 483.46765788 158.34765625 483.62109375 C159.35658936 483.62866699 160.36552246 483.63624023 161.4050293 483.64404297 C178.31716499 484.01663485 191.34415804 490.9149138 203.03515625 503.05859375 C215.93023736 518.33700697 217.36297459 534.84754287 216.03515625 554.05859375 C215.12571766 560.61746949 213.24949986 566.83370436 211.03515625 573.05859375 C210.7834668 573.77418457 210.53177734 574.48977539 210.27246094 575.22705078 C199.90467602 603.91125573 181.08251501 629.29002338 160.03515625 651.05859375 C159.40383789 651.71182617 158.77251953 652.36505859 158.12207031 653.03808594 C150.15415865 661.23751077 142.14366137 669.11583374 133.03515625 676.05859375 C131.84754543 676.9868374 130.6600534 677.91523304 129.47265625 678.84375 C85.29816488 713.03723036 31.63571034 733.39509329 -23.27734375 741.99609375 C-23.96592468 742.10418365 -24.65450562 742.21227356 -25.36395264 742.32363892 C-31.9584267 743.34362042 -38.27956403 744.17353755 -44.96484375 744.05859375 C-45.26853882 745.50516357 -45.26853882 745.50516357 -45.57836914 746.98095703 C-48.46381423 760.45702126 -51.90059407 773.78258081 -55.40063477 787.11035156 C-56.40534699 790.94505628 -57.39710797 794.78297116 -58.38867188 798.62109375 C-59.03696939 801.09786344 -59.68603137 803.57443318 -60.3359375 806.05078125 C-60.62568954 807.17918427 -60.91544159 808.30758728 -61.213974 809.47018433 C-64.26426461 820.9708625 -67.97230509 831.09726253 -75.96484375 840.05859375 C-76.49851562 840.68507813 -77.0321875 841.3115625 -77.58203125 841.95703125 C-85.74105407 850.8968218 -98.3793025 856.41747272 -110.359375 857.21875 C-123.81010617 857.66133486 -135.94994816 853.55795315 -146.21484375 844.87109375 C-150.90986135 840.4111944 -154.14043786 835.86664503 -156.96484375 830.05859375 C-157.45082031 829.09308594 -157.93679688 828.12757813 -158.4375 827.1328125 C-165.01769216 812.41444397 -162.03937505 797.7603411 -157.83984375 782.87109375 C-157.42584654 781.34360937 -157.01375809 779.81560646 -156.60351562 778.28710938 C-155.5972282 774.55505166 -154.5680341 770.82980284 -153.53161621 767.10601807 C-152.69331419 764.07771296 -151.87960022 761.04294202 -151.06640625 758.0078125 C-147.40342397 744.3743344 -147.40342397 744.3743344 -145.96484375 740.05859375 C-147.72828125 740.08953125 -147.72828125 740.08953125 -149.52734375 740.12109375 C-153.41473345 740.18929357 -157.12315459 739.62533605 -160.96484375 739.05859375 C-161.25983765 740.36316528 -161.25983765 740.36316528 -161.56079102 741.6940918 C-164.714204 755.44480649 -168.26610046 769.09460191 -171.82788086 782.74389648 C-172.72706852 786.19188935 -173.61608388 789.64242376 -174.50301266 793.09358692 C-175.19986097 795.79691767 -175.90457648 798.49815505 -176.61129951 801.1989193 C-177.1003602 803.07603823 -177.5810845 804.95532301 -178.06150818 806.83467102 C-182.6908375 824.4068693 -189.81510569 839.98152984 -205.71484375 849.80859375 C-218.33034036 856.72225876 -232.66737712 858.34927634 -246.7578125 855.21484375 C-259.52067387 850.70133483 -270.47652075 842.12478235 -276.53125 829.89453125 C-285.75800745 808.28656936 -279.42110089 787.3656073 -273.31744385 765.82299805 C-272.31229639 762.25443443 -271.33703136 758.67773564 -270.359375 755.1015625 C-268.91554534 749.83083544 -267.45531507 744.56510862 -265.97949219 739.30322266 C-264.54162684 734.14783559 -263.11050235 728.99080305 -261.70800781 723.82568359 C-261.3738385 722.601185 -261.03966919 721.3766864 -260.69537354 720.11508179 C-259.84861276 717.09605391 -259.84861276 717.09605391 -259.96484375 714.05859375 C-260.63837891 713.74220947 -261.31191406 713.4258252 -262.00585938 713.09985352 C-290.95788762 699.46013264 -316.7748214 684.16961813 -340.96484375 663.05859375 C-341.50689453 662.58647461 -342.04894531 662.11435547 -342.60742188 661.62792969 C-344.17143697 660.2587107 -345.72629401 658.87997057 -347.27734375 657.49609375 C-348.18097656 656.69042969 -349.08460938 655.88476562 -350.015625 655.0546875 C-351.96484375 653.05859375 -351.96484375 653.05859375 -351.96484375 651.05859375 C-352.62484375 651.05859375 -353.28484375 651.05859375 -353.96484375 651.05859375 C-355.3046875 649.765625 -355.3046875 649.765625 -356.90234375 647.87109375 C-357.52625 647.13375 -358.15015625 646.39640625 -358.79296875 645.63671875 C-359.5096875 644.7859375 -360.22640625 643.93515625 -360.96484375 643.05859375 C-361.7846875 642.1253125 -362.60453125 641.19203125 -363.44921875 640.23046875 C-416.2153692 579.88888383 -431.92349378 498.09630098 -427.44897461 420.02587891 C-426.47228373 405.56189158 -424.46439942 391.33060057 -421.96484375 377.05859375 C-421.7858252 375.99962891 -421.60680664 374.94066406 -421.42236328 373.84960938 C-410.57024076 310.150264 -383.46886822 246.83131168 -341.96484375 197.05859375 C-341.55024902 196.55521484 -341.1356543 196.05183594 -340.70849609 195.53320312 C-334.7828305 188.3430828 -328.67294294 181.5388707 -321.96484375 175.05859375 C-319.36845833 172.47906798 -316.79312492 169.88244664 -314.23828125 167.26171875 C-307.82483485 160.70258745 -301.21474364 154.70046768 -293.96484375 149.05859375 C-292.69787606 148.0508323 -291.43095185 147.04301618 -290.1640625 146.03515625 C-270.40563642 130.4712433 -248.63228864 117.88281361 -225.96484375 107.05859375 C-225.30387695 106.74067871 -224.64291016 106.42276367 -223.96191406 106.09521484 C-185.99496539 88.01090942 -143.97326581 77.20816547 -102.015625 74.51171875 C-100.99112244 74.44525146 -100.99112244 74.44525146 -99.94592285 74.37744141 C-98.2856439 74.26990474 -96.62525501 74.16406768 -94.96484375 74.05859375 C-94.59516479 72.34313354 -94.59516479 72.34313354 -94.21801758 70.59301758 C-93.28723418 66.28731227 -92.34268922 61.98471698 -91.39428711 57.68286133 C-90.98827417 55.83242561 -90.58583205 53.98120219 -90.18725586 52.12915039 C-87.08862245 37.74791453 -84.04911413 23.99792053 -74.96484375 12.05859375 C-74.56136719 11.46820313 -74.15789062 10.8778125 -73.7421875 10.26953125 C-57.11081635 -12.00735121 -22.11502402 -14.48111586 0 0 Z " fill="#020202" transform="translate(597.96484375,80.94140625)"/>
<path d="M0 0 C4.50757846 2.81117796 6.92907282 6.51345903 8.4375 11.5625 C9.30295807 19.24344035 9.0706429 26.41519431 6.171875 33.62109375 C5.0588727 36.56344558 4.76916915 39.44480997 4.4375 42.5625 C5.571875 42.913125 6.70625 43.26375 7.875 43.625 C25.19528616 49.43479677 41.15665456 57.03337865 55.4375 68.5625 C56.64212891 69.51769531 56.64212891 69.51769531 57.87109375 70.4921875 C72.05489211 82.34069843 81.30991235 99.42993829 84.4375 117.5625 C85.49490045 129.6505097 84.24160801 140.89472441 76.4375 150.5625 C68.30741586 159.19873724 59.68713429 163.48567675 47.81616211 163.90625 C38.83491582 164.0420883 32.27324193 162.9569575 25.3828125 156.6953125 C19.60648249 150.5354917 17.40700963 143.87270336 15.39697266 135.8347168 C11.98606391 122.20634051 7.78977576 107.82779173 -3.5625 98.5625 C-6.85189544 97.36369245 -6.85189544 97.36369245 -9.5625 97.5625 C-11.66351072 101.52436181 -13.18129884 105.25360852 -14.30493164 109.59155273 C-14.76721916 111.35608543 -14.76721916 111.35608543 -15.23884583 113.15626526 C-15.72583199 115.05698036 -15.72583199 115.05698036 -16.22265625 116.99609375 C-16.57187212 118.33937702 -16.92167234 119.6825085 -17.27201843 121.02549744 C-18.20490572 124.60843596 -19.12949672 128.19346639 -20.05241394 131.77898407 C-21.00899306 135.48947863 -21.97323304 139.1979816 -22.93652344 142.90673828 C-25.15528511 151.45606093 -27.36068876 160.00879861 -29.5625 168.5625 C-29.85413025 169.6948407 -30.1457605 170.8271814 -30.44622803 171.99383545 C-32.44802829 179.76804428 -34.44877442 187.5425222 -36.42993164 195.32202148 C-36.60629654 196.01402145 -36.78266144 196.70602142 -36.96437073 197.41899109 C-37.30497267 198.75646264 -37.64487344 200.09411301 -37.98399353 201.43196106 C-38.93677335 205.17474969 -39.92234599 208.90686986 -40.93554688 212.63378906 C-41.1670343 213.49179108 -41.39852173 214.34979309 -41.63702393 215.23379517 C-42.08641801 216.89537848 -42.54085968 218.55560767 -43.00115967 220.21420288 C-44.04587936 224.08867747 -44.85262282 227.50788147 -44.5625 231.5625 C-43.57636719 231.76552734 -43.57636719 231.76552734 -42.5703125 231.97265625 C-13.84512679 238.4727999 13.56640384 254.73257817 29.58203125 279.9375 C43.96779326 303.85325167 48.60549129 330.57178618 42.40625 357.98046875 C32.05154955 396.26780871 6.89472939 426.74682582 -27.0625 446.875 C-53.67433197 462.15357325 -82.35867173 470.02639392 -112.5625 474.5625 C-113.31896792 476.89390932 -114.06906831 479.22692126 -114.8125 481.5625 C-115.04066406 482.27857422 -115.26882813 482.99464844 -115.50390625 483.73242188 C-116.87780254 488.12658737 -118.06281756 492.51943088 -119.09033203 497.0065918 C-121.30648204 506.65612602 -124.17235167 513.85719914 -132.5625 519.5625 C-139.39106894 522.3201913 -146.91661892 522.67607089 -153.9375 520.375 C-158.44601411 518.43888406 -160.51394719 515.50232269 -162.8125 511.25 C-164.86308479 503.90207115 -162.93627041 497.04090577 -161.0625 489.875 C-160.58847509 488.03911432 -160.11954582 486.20190379 -159.65625 484.36328125 C-159.44677734 483.56059814 -159.23730469 482.75791504 -159.02148438 481.9309082 C-158.53504988 479.42085447 -158.48324896 477.11296816 -158.5625 474.5625 C-164.00079863 472.68560873 -169.46032499 470.99605519 -175.00732422 469.47119141 C-196.79520912 463.46844826 -215.5536584 455.35408122 -233.5625 441.5625 C-234.33335937 440.97855469 -235.10421875 440.39460938 -235.8984375 439.79296875 C-249.80795309 428.49492347 -258.20336155 411.13006494 -260.5625 393.5625 C-261.46860546 377.14724061 -258.38809749 362.3174119 -247.5625 349.5625 C-239.59785917 341.68819536 -230.65334116 338.220011 -219.5 338.0625 C-210.58301413 338.17845424 -202.7106526 340.35722653 -196.19873047 346.69799805 C-189.32142792 354.53475715 -188.08872308 364.71450226 -186.5 374.625 C-183.9527581 390.30819452 -180.48000718 402.99951848 -167.140625 412.890625 C-160.71057668 417.06041391 -153.22296994 421.75365524 -145.375 421.625 C-143.4878125 421.5940625 -143.4878125 421.5940625 -141.5625 421.5625 C-137.55406312 407.78882858 -133.79581896 393.96787892 -130.21337891 380.07763672 C-128.23633574 372.43791477 -126.17382788 364.82066283 -124.11328125 357.203125 C-120.67806484 344.49426335 -117.28113425 331.77563443 -113.92218018 319.04641724 C-113.47790704 317.36337924 -113.03305241 315.68049462 -112.58758545 313.99777222 C-111.9563332 311.61226598 -111.32746576 309.22614297 -110.69921875 306.83984375 C-110.41991264 305.78645813 -110.41991264 305.78645813 -110.13496399 304.71179199 C-108.81657392 299.68851402 -107.65890984 294.63865272 -106.5625 289.5625 C-107.1709375 289.40394531 -107.779375 289.24539063 -108.40625 289.08203125 C-146.97814146 278.81510132 -183.47389068 261.59859066 -204.67578125 226.109375 C-217.33004171 203.15783084 -219.07050662 175.07850508 -212.29443359 150.015625 C-200.25293225 109.65771791 -171.40246426 78.67636298 -134.85302734 58.76660156 C-104.72742025 42.92994688 -73.22862965 37.18188345 -39.5625 35.5625 C-38.11205073 30.78093418 -37.12044369 26.1283864 -36.3125 21.1875 C-34.75658368 12.81980681 -31.76243867 6.71715812 -24.875 1.5625 C-17.80524169 -2.70603332 -7.69749234 -3.24415386 0 0 Z " fill="#1080E2" transform="translate(613.5625,232.4375)"/>
<path d="M0 0 C1.25167969 -0.00257813 2.50335937 -0.00515625 3.79296875 -0.0078125 C6.8125 0.125 6.8125 0.125 7.8125 1.125 C7.64896459 7.00959788 6.32670772 12.68351953 4.7734375 18.33203125 C4.57180496 19.08709457 4.37017242 19.8421579 4.16242981 20.62010193 C3.73212141 22.22921399 3.29895814 23.83756497 2.86312866 25.44519043 C1.71229085 29.69048706 0.58200055 33.94126317 -0.55078125 38.19140625 C-0.77749008 39.03976044 -1.00419891 39.88811462 -1.23777771 40.76217651 C-3.24190569 48.27975234 -5.13821873 55.82083963 -7 63.375 C-8.95709764 71.28542458 -10.96679047 79.16823956 -13.19555664 87.0065918 C-14.59533108 91.94269871 -15.92929697 96.89457542 -17.23828125 101.85546875 C-17.4189061 102.53885315 -17.59953094 103.22223755 -17.78562927 103.92633057 C-18.51934882 106.70356918 -19.25271244 109.48087671 -19.97946167 112.25994873 C-20.48859707 114.20661703 -21.00201964 116.15216252 -21.515625 118.09765625 C-21.8137207 119.23468994 -22.11181641 120.37172363 -22.41894531 121.54321289 C-23.1875 124.125 -23.1875 124.125 -24.1875 125.125 C-29.4104599 125.68795376 -32.98404946 124.12053715 -37.4375 121.625 C-38.09572754 121.2626123 -38.75395508 120.90022461 -39.43212891 120.52685547 C-56.25667859 111.02269162 -68.41419332 96.87968297 -73.74462891 78.16943359 C-76.93209014 63.4551004 -73.53609079 49.26960005 -66.125 36.5 C-59.13455614 26.21904352 -50.0670142 18.09565277 -39.1875 12.125 C-38.26582031 11.60421875 -37.34414063 11.0834375 -36.39453125 10.546875 C-28.33527932 6.23990636 -19.94240162 3.59963999 -11.1875 1.125 C-10.18783203 0.81369141 -10.18783203 0.81369141 -9.16796875 0.49609375 C-6.11018761 -0.07686327 -3.1059511 -0.0064372 0 0 Z " fill="#FBFCFC" transform="translate(553.1875,319.875)"/>
<path d="M0 0 C16.04505604 8.28131925 27.17677352 20.98751602 33 38 C35.19082223 46.57038633 35.04610399 56.65909745 32 65 C31.68160156 65.91136719 31.36320313 66.82273437 31.03515625 67.76171875 C28.11399066 75.44330235 24.15766956 81.63262249 19 88 C18.33226562 88.84433594 17.66453125 89.68867187 16.9765625 90.55859375 C5.8030057 103.87132593 -12.66944467 115.92470737 -30 119 C-32.64453125 119.1875 -32.64453125 119.1875 -35 119 C-35.66 118.34 -36.32 117.68 -37 117 C-36.57807037 111.13938788 -34.94244713 105.51994803 -33.4453125 99.85546875 C-33.18789276 98.86895828 -32.93047302 97.88244781 -32.66525269 96.86604309 C-31.82219965 93.63888165 -30.9736772 90.41318652 -30.125 87.1875 C-29.53743122 84.94344554 -28.95019526 82.69930392 -28.36328125 80.45507812 C-27.16383299 75.87104208 -25.96217933 71.28759257 -24.75878906 66.70458984 C-23.1215849 60.46755226 -21.49315471 54.22825605 -19.8671875 47.98828125 C-19.14130924 45.20547939 -18.41518868 42.42274093 -17.68890381 39.64004517 C-17.23795835 37.91191364 -16.78730405 36.1837061 -16.3369751 34.45541382 C-15.10967173 29.74808007 -13.87338238 25.0432968 -12.62207031 20.34228516 C-12.18920637 18.71241991 -11.75907019 17.08182879 -11.33105469 15.45068359 C-10.66626098 12.92323112 -9.99068337 10.39888822 -9.3125 7.875 C-9.11003662 7.09793701 -8.90757324 6.32087402 -8.69897461 5.52026367 C-8.19361592 3.66250699 -7.60436737 1.82794622 -7 0 C-4.24608304 -1.37695848 -2.94214767 -0.81749979 0 0 Z " fill="#FBFCFD" transform="translate(553,537)"/>
<path d="M0 0 C4.07606649 0.53410526 5.94482493 2.61387524 8.8125 5.4375 C26.05109659 21.7144758 48.0877924 30.86898196 70 39 C69.32029458 46.71550917 67.31815704 54.04147749 65.359375 61.515625 C64.99117659 62.93589522 64.62344907 64.3562876 64.25616455 65.77679443 C63.28920776 69.51188443 62.31643017 73.24543286 61.34222412 76.9786377 C59.79935969 82.89599902 58.26637563 88.81593503 56.73112488 94.73527527 C56.17594065 96.87495596 55.62005844 99.01445442 55.06408691 101.15393066 C52.31160741 111.75337727 49.62151861 122.36738105 47 133 C41.38059514 130.3048383 37.36710719 126.36762312 34.98828125 120.5078125 C33.50568994 114.96966718 32.76049418 109.34744741 31.98632812 103.67797852 C29.7350863 87.38233415 25.30278013 74.41468525 12.21484375 63.5625 C4.31244666 57.98761669 -4.63449401 55.83141055 -14 54 C-13.3021427 48.01741307 -11.88024931 42.3524303 -10.3125 36.54296875 C-10.04993408 35.55879471 -9.78736816 34.57462067 -9.5168457 33.56062317 C-8.96400239 31.49180422 -8.40919747 29.42350858 -7.85253906 27.35571289 C-6.99845687 24.18176542 -6.151098 21.00607906 -5.3046875 17.83007812 C-4.76601846 15.81760298 -4.22696934 13.80522952 -3.6875 11.79296875 C-3.43331299 10.84093063 -3.17912598 9.88889252 -2.91723633 8.90800476 C-2.68029053 8.02981583 -2.44334473 7.15162689 -2.19921875 6.24682617 C-1.99127686 5.47296066 -1.78333496 4.69909515 -1.5690918 3.90177917 C-1 2 -1 2 0 0 Z " fill="#050505" transform="translate(412,497)"/>
<path d="M0 0 C1.91419527 2.8712929 2.80128693 5.20893984 3.9375 8.4375 C9.15399709 21.05805748 18.85568591 28.73517591 31.2578125 33.94921875 C33.15154332 34.68726973 35.07511669 35.34749718 37 36 C38.155 36.391875 39.31 36.78375 40.5 37.1875 C41.325 37.455625 42.15 37.72375 43 38 C42.38483944 43.99631403 41.1943172 49.59107433 39.6015625 55.3984375 C39.36593597 56.27343903 39.13030945 57.14844055 38.88754272 58.04995728 C38.13837453 60.82635561 37.38164596 63.60063148 36.625 66.375 C36.12453829 68.2290421 35.62453429 70.08320781 35.125 71.9375 C34.63844208 73.73709311 34.15147612 75.53657596 33.6640625 77.3359375 C33.33107651 78.56611099 33.33107651 78.56611099 32.99136353 79.82113647 C31.4206418 85.57636303 29.73762269 91.29303818 28 97 C26.4840625 95.824375 26.4840625 95.824375 24.9375 94.625 C11.76728927 84.82821166 -1.66963599 76.96512218 -17 71 C-16.54012467 62.60664778 -14.57826011 54.76980259 -12.40234375 46.6796875 C-12.04438095 45.32652136 -11.68709801 43.97317522 -11.33045959 42.61965942 C-10.39850057 39.08997895 -9.45744092 35.56278993 -8.51434326 32.03607178 C-7.55018413 28.42396909 -6.59481991 24.80954236 -5.63867188 21.1953125 C-3.76762409 14.12792919 -1.88693791 7.06315943 0 0 Z " fill="#060606" transform="translate(610,379)"/>
<path d="M0 0 C-1.25579981 7.41838933 -2.82785253 14.68679337 -4.71484375 21.96875 C-4.97125137 22.97031128 -5.227659 23.97187256 -5.49183655 25.00378418 C-6.30348375 28.17011968 -7.12049504 31.33504328 -7.9375 34.5 C-8.48145227 36.62100851 -9.02507466 38.74210165 -9.56835938 40.86328125 C-11.98035266 50.26097867 -14.42531909 59.64533308 -17 69 C-25.7493328 64.84926947 -30.07113096 56.30438987 -33.25 47.5625 C-35.48321855 36.95471188 -32.93755813 28.20513319 -27.12109375 19.0390625 C-21.42761342 11.5526077 -10.05094153 0 0 0 Z " fill="#080808" transform="translate(533,347)"/>
<path d="M0 0 C5.55324415 4.36326326 7.6254923 11.09756532 8.5 17.875 C7.55726089 33.43019535 -2.38642855 43.89633323 -13 54 C-14.05980925 50.82057225 -13.9910933 50.13368573 -13.15136719 47.05444336 C-12.8354361 45.87192238 -12.8354361 45.87192238 -12.51312256 44.66551208 C-12.15858002 43.39055626 -12.15858002 43.39055626 -11.796875 42.08984375 C-11.55841858 41.20776749 -11.31996216 40.32569122 -11.07427979 39.41688538 C-10.30736354 36.58822255 -9.52868613 33.76294268 -8.75 30.9375 C-8.24014496 29.06074788 -7.731022 27.18379671 -7.22265625 25.30664062 C-4.9199051 16.83711073 -2.55418226 8.3976709 0 0 Z " fill="#0B0B0B" transform="translate(559,569)"/>
<path d="M0 0 C0.33 0 0.66 0 1 0 C1.33 3.3 1.66 6.6 2 10 C1.67 10 1.34 10 1 10 C1 12.97 1 15.94 1 19 C0.01 19.33 -0.98 19.66 -2 20 C-3.21869929 22.50447516 -3.21869929 22.50447516 -4 25 C-4.66 24.67 -5.32 24.34 -6 24 C-5.70222656 23.00613281 -5.40445313 22.01226562 -5.09765625 20.98828125 C-3.7966413 16.43644832 -2.93273955 11.81607916 -2.05664062 7.16601562 C-1.0992149 2.1984298 -1.0992149 2.1984298 0 0 Z " fill="#2687E2" transform="translate(580,244)"/>
<path d="M0 0 C0 2.64 0 5.28 0 8 C-1.32 8.33 -2.64 8.66 -4 9 C-4 15.27 -4 21.54 -4 28 C-4.66 27.67 -5.32 27.34 -6 27 C-6.59804798 6.10154565 -6.59804798 6.10154565 -2.48828125 1.1953125 C-1 0 -1 0 0 0 Z " fill="#2C87E4" transform="translate(359,599)"/>
<path d="M0 0 C0 4.10023896 -1.71882484 5.41390966 -4.36328125 8.37890625 C-6.36896647 10.36544412 -8.5762541 11.5572941 -11 13 C-13.06982497 15.0366414 -15.06351172 17.12609386 -17.03515625 19.2578125 C-19.08394463 21.07443202 -20.32705768 21.60709534 -23 22 C-22.28585937 21.28714844 -21.57171875 20.57429688 -20.8359375 19.83984375 C-19.00079504 18.00534701 -17.17429953 16.1633389 -15.3515625 14.31640625 C-10.40402838 9.31925503 -5.43702086 4.47043937 0 0 Z " fill="#212121" transform="translate(300,233)"/>
<path d="M0 0 C0 3 0 3 -1.25341797 4.59399414 C-1.82721191 5.15207764 -2.40100586 5.71016113 -2.9921875 6.28515625 C-3.61480469 6.89810547 -4.23742187 7.51105469 -4.87890625 8.14257812 C-5.53761719 8.77615234 -6.19632813 9.40972656 -6.875 10.0625 C-7.85146484 11.01866211 -7.85146484 11.01866211 -8.84765625 11.99414062 C-10.05769581 13.17798345 -11.27077998 14.35872756 -12.48779297 15.53540039 C-13.66906695 16.67948541 -14.83717182 17.83717182 -16 19 C-18.125 19.625 -18.125 19.625 -20 20 C-17.12854876 16.05175455 -13.85721298 13.05906898 -10.171875 9.9140625 C-6.61395174 6.77848265 -3.31216096 3.39144141 0 0 Z " fill="#202020" transform="translate(672,641)"/>
<path d="M0 0 C2.79908133 2.79908133 2.72362983 5.13081763 3 9 C2.34 9.66 1.68 10.32 1 11 C0.67 11 0.34 11 0 11 C-0.33 12.98 -0.66 14.96 -1 17 C-1.33 17 -1.66 17 -2 17 C-2.25287193 10.93107371 -1.69832609 5.83799592 0 0 Z " fill="#2384E3" transform="translate(484,610)"/>
<path d="M0 0 C3 3.75 3 3.75 3 6 C3.99 6 4.98 6 6 6 C6 6.99 6 7.98 6 9 C7.32 9 8.64 9 10 9 C10 9.66 10 10.32 10 11 C5.60633322 10.49786665 3.12817658 9.12817658 0 6 C-0.875 3.3125 -0.875 3.3125 -1 1 C-0.67 0.67 -0.34 0.34 0 0 Z " fill="#1A7CDD" transform="translate(453,742)"/>
<path d="M0 0 C1.8718733 7.0799079 0.50472602 12.29091244 -2 19 C-2.66 19 -3.32 19 -4 19 C-3.37968409 12.42465139 -1.85102717 6.33307408 0 0 Z " fill="#363636" transform="translate(556,579)"/>
<path d="M0 0 C0.33 1.32 0.66 2.64 1 4 C-1.64440639 4.8814688 -3.28060752 5.16174818 -6 5.1875 C-6.680625 5.20167969 -7.36125 5.21585937 -8.0625 5.23046875 C-10 5 -10 5 -13 3 C-11.2092015 2.49689942 -9.41733089 1.99761372 -7.625 1.5 C-6.62726562 1.2215625 -5.62953125 0.943125 -4.6015625 0.65625 C-2 0 -2 0 0 0 Z " fill="#2786E3" transform="translate(526,274)"/>
<path d="M0 0 C1.89213369 2.38573379 3.02391783 4.07175348 4 7 C5.29355827 8.37195574 6.62298702 9.71182656 8 11 C7.34 11.66 6.68 12.32 6 13 C4.65772954 11.57084149 3.32642904 10.13137328 2 8.6875 C1.2575 7.88699219 0.515 7.08648438 -0.25 6.26171875 C-2 4 -2 4 -2 1 C-1.34 0.67 -0.68 0.34 0 0 Z " fill="#2381DF" transform="translate(369,657)"/>
<path d="M0 0 C0.33 0.66 0.66 1.32 1 2 C0.0625 4.125 0.0625 4.125 -1 6 C-0.34 6.33 0.32 6.66 1 7 C-1.64 8.98 -4.28 10.96 -7 13 C-7.66 12.67 -8.32 12.34 -9 12 C-8.27683594 11.07767578 -8.27683594 11.07767578 -7.5390625 10.13671875 C-6.90742187 9.32847656 -6.27578125 8.52023437 -5.625 7.6875 C-4.99851562 6.88699219 -4.37203125 6.08648438 -3.7265625 5.26171875 C-2.42243282 3.55336788 -1.19218183 1.78827274 0 0 Z " fill="#2481E1" transform="translate(579,614)"/>
<path d="M0 0 C1.625 1.6875 1.625 1.6875 3 4 C2.3125 6.4375 2.3125 6.4375 1 9 C0.62875 9.928125 0.2575 10.85625 -0.125 11.8125 C-0.41375 12.534375 -0.7025 13.25625 -1 14 C-1.66 14 -2.32 14 -3 14 C-2.68872484 12.41642541 -2.37592711 10.83315007 -2.0625 9.25 C-1.80146484 7.92742188 -1.80146484 7.92742188 -1.53515625 6.578125 C-1.07631512 4.36764947 -0.56663926 2.18487932 0 0 Z " fill="#3189E4" transform="translate(492,580)"/>
<path d="M0 0 C2.58361518 -0.05407567 5.16609255 -0.093707 7.75 -0.125 C8.84441406 -0.15013672 8.84441406 -0.15013672 9.9609375 -0.17578125 C14.13521398 -0.21372922 16.16970546 0.08485273 20 2 C12.08 2.495 12.08 2.495 4 3 C4 2.34 4 1.68 4 1 C2.68 0.67 1.36 0.34 0 0 Z " fill="#227EE2" transform="translate(386,571)"/>
<path d="M0 0 C0.66 0.33 1.32 0.66 2 1 C1.67 1.66 1.34 2.32 1 3 C-1.06640625 3.6328125 -1.06640625 3.6328125 -3.5625 4.125 C-4.38878906 4.29257812 -5.21507812 4.46015625 -6.06640625 4.6328125 C-6.70449219 4.75398437 -7.34257813 4.87515625 -8 5 C-7.625 2.5625 -7.625 2.5625 -7 0 C-4.30919898 -1.34540051 -2.86443593 -0.71610898 0 0 Z " fill="#ECF3F6" transform="translate(553,537)"/>
<path d="M0 0 C0.66 0.33 1.32 0.66 2 1 C2 1.66 2 2.32 2 3 C1.67 3.33 1.34 3.66 1 4 C0.67 4.66 0.34 5.32 0 6 C-2.50390625 6.4140625 -2.50390625 6.4140625 -5.5625 6.625 C-6.57441406 6.69976562 -7.58632813 6.77453125 -8.62890625 6.8515625 C-9.41136719 6.90054687 -10.19382812 6.94953125 -11 7 C-7.46131524 4.28752798 -3.95977083 2.0532145 0 0 Z " fill="#2684E4" transform="translate(481,290)"/>
<path d="M0 0 C1.0625 1.8125 1.0625 1.8125 2 4 C1.67 4.99 1.34 5.98 1 7 C0.91978001 8.40824893 0.89234023 9.81997231 0.90234375 11.23046875 C0.90556641 12.03291016 0.90878906 12.83535156 0.91210938 13.66210938 C0.92048828 14.49548828 0.92886719 15.32886719 0.9375 16.1875 C0.94201172 17.03248047 0.94652344 17.87746094 0.95117188 18.74804688 C0.96294597 20.83206155 0.9808811 22.91603977 1 25 C-1.55271658 21.17092513 -1.25857606 18.05416088 -1.1875 13.625 C-1.18685547 12.86960937 -1.18621094 12.11421875 -1.18554688 11.3359375 C-1.15483499 7.43211533 -0.94897317 3.81107623 0 0 Z " fill="#4E4D4E" transform="translate(437,876)"/>
<path d="M0 0 C0.53625 0.226875 1.0725 0.45375 1.625 0.6875 C1.295 2.3375 0.965 3.9875 0.625 5.6875 C-1.375 4.6875 -1.375 4.6875 -2.375 3.6875 C-3.3340625 3.9659375 -3.3340625 3.9659375 -4.3125 4.25 C-4.993125 4.394375 -5.67375 4.53875 -6.375 4.6875 C-7.035 4.0275 -7.695 3.3675 -8.375 2.6875 C-2.95961538 -0.38942308 -2.95961538 -0.38942308 0 0 Z " fill="#2785E1" transform="translate(597.375,231.3125)"/>
<path d="M0 0 C0.33 0 0.66 0 1 0 C1 2.97 1 5.94 1 9 C0.34 9 -0.32 9 -1 9 C-0.938125 10.11375 -0.87625 11.2275 -0.8125 12.375 C-0.9053125 14.169375 -0.9053125 14.169375 -1 16 C-1.99 16.66 -2.98 17.32 -4 18 C-2.83445193 11.9490696 -1.54656904 5.96533774 0 0 Z " fill="#3D3D3E" transform="translate(549,605)"/>
<path d="M0 0 C3.26460973 1.80412643 4.88929795 2.83394693 7 6 C5.25 6.75 5.25 6.75 3 7 C0.75 5.0625 0.75 5.0625 -1 3 C-0.67 2.01 -0.34 1.02 0 0 Z " fill="#2482E2" transform="translate(625,493)"/>
<path d="M0 0 C2.97 0.33 5.94 0.66 9 1 C9.66 2.65 10.32 4.3 11 6 C6.95743617 4.77782954 3.50711041 3.37245704 0 1 C0 0.67 0 0.34 0 0 Z " fill="#177BDC" transform="translate(451,499)"/>
<path d="M0 0 C1.93137318 3.51922149 2.26919991 5.9620014 2 10 C1.67 10.33 1.34 10.66 1 11 C0.63239269 13.32817964 0.29758419 15.6618385 0 18 C-0.33 18 -0.66 18 -1 18 C-1.09706112 11.88514973 -0.77040851 6.06696699 0 0 Z " fill="#404040" transform="translate(172,484)"/>
<path d="M0 0 C0.33 0.99 0.66 1.98 1 3 C2.32 3 3.64 3 5 3 C5.33 5.31 5.66 7.62 6 10 C1.77202073 6.91709845 1.77202073 6.91709845 0 5 C-0.375 2.1875 -0.375 2.1875 0 0 Z " fill="#2282E2" transform="translate(423,473)"/>
<path d="M0 0 C0.33 0 0.66 0 1 0 C0.67 4.62 0.34 9.24 0 14 C-0.99 14.33 -1.98 14.66 -3 15 C-2.44854729 9.76119922 -1.57077907 5.02649303 0 0 Z " fill="#3688E1" transform="translate(555,345)"/>
<path d="M0 0 C1.32 0.33 2.64 0.66 4 1 C4 1.66 4 2.32 4 3 C4.66 3 5.32 3 6 3 C6 4.98 6 6.96 6 9 C3.03134491 6.45543849 1.6380249 3.51005335 0 0 Z " fill="#1D7CE0" transform="translate(408,456)"/>
<path d="M0 0 C2.35953094 2.35953094 2.49141413 3.77895617 3 7 C2.01 7.495 2.01 7.495 1 8 C-0.13350534 10.01669827 -0.13350534 10.01669827 -1 12 C-2.45606519 7.47907032 -1.27032841 4.48351204 0 0 Z " fill="#308BE3" transform="translate(540,402)"/>
<path d="M0 0 C0 0.66 0 1.32 0 2 C-0.99 2.495 -0.99 2.495 -2 3 C-1.67 3.66 -1.34 4.32 -1 5 C-3.97 4.67 -6.94 4.34 -10 4 C-6.86268382 1.90845588 -3.85464592 0 0 0 Z " fill="#2685E2" transform="translate(506,280)"/>
<path d="M0 0 C1.134375 0.020625 2.26875 0.04125 3.4375 0.0625 C2.7775 0.7225 2.1175 1.3825 1.4375 2.0625 C-0.6875 1.6875 -0.6875 1.6875 -2.5625 1.0625 C-2.2325 2.0525 -1.9025 3.0425 -1.5625 4.0625 C-2.8825 5.3825 -4.2025 6.7025 -5.5625 8.0625 C-4.54651535 0.07976343 -4.54651535 0.07976343 0 0 Z " fill="#2D2D2D" transform="translate(520.5625,723.9375)"/>
<path d="M0 0 C0.66 0.33 1.32 0.66 2 1 C1.625 3.9375 1.625 3.9375 1 7 C-1.70879335 8.35439668 -4.00933268 8.06501451 -7 8 C-7 7.67 -7 7.34 -7 7 C-5.35 6.67 -3.7 6.34 -2 6 C-1.34 4.02 -0.68 2.04 0 0 Z " fill="#408FE4" transform="translate(474,648)"/>
<path d="M0 0 C2.12508244 3.18762365 2.5020163 5.26512223 3 9 C2.34 9 1.68 9 1 9 C-0.41377341 6.36095629 -1.37240135 3.92879371 -2 1 C-1.34 0.67 -0.68 0.34 0 0 Z " fill="#2181E1" transform="translate(653,535)"/>
<path d="M0 0 C0.66 0.99 1.32 1.98 2 3 C1.5625 5.0625 1.5625 5.0625 1 7 C1.33 7.66 1.66 8.32 2 9 C1.34 9 0.68 9 0 9 C0 9.66 0 10.32 0 11 C-0.66 11 -1.32 11 -2 11 C-1 3.57142857 -1 3.57142857 0 0 Z " fill="#292929" transform="translate(610,379)"/>
<path d="M0 0 C0.66 0.66 1.32 1.32 2 2 C1.8125 5.5 1.8125 5.5 1 9 C0.01 9.66 -0.98 10.32 -2 11 C-1.34 7.37 -0.68 3.74 0 0 Z " fill="#2784E3" transform="translate(550,364)"/>
<path d="M0 0 C2.97 1.65 5.94 3.3 9 5 C5.16380575 5.95904856 3.67568464 5.91892116 0 5 C0 3.33333333 0 1.66666667 0 0 Z " fill="#2381E0" transform="translate(651,289)"/>
<path d="M0 0 C2.56687367 3.8503105 1.83288724 5.58569763 1 10 C-1.76223278 7.23776722 -1.57856291 4.79293383 -2 1 C-1.34 0.67 -0.68 0.34 0 0 Z " fill="#2183E1" transform="translate(581,400)"/>
<path d="M0 0 C0.33 0 0.66 0 1 0 C1.05389087 1.95803507 1.09274217 3.91648909 1.125 5.875 C1.14820313 6.96554687 1.17140625 8.05609375 1.1953125 9.1796875 C1 12 1 12 -1 14 C-1 13.34 -1 12.68 -1 12 C-1.66 11.67 -2.32 11.34 -3 11 C-2.34 11 -1.68 11 -1 11 C-0.67 7.37 -0.34 3.74 0 0 Z " fill="#2A89E4" transform="translate(478,381)"/>
<path d="M0 0 C0.66 0.33 1.32 0.66 2 1 C-1.17320782 4.53586014 -3.16743695 6.58578031 -8 7 C-5.42215154 4.35247996 -3.08351902 2.05567935 0 0 Z " fill="#222222" transform="translate(613,685)"/>
<path d="M0 0 C0.66 0 1.32 0 2 0 C1.67 1.32 1.34 2.64 1 4 C0.34 4 -0.32 4 -1 4 C-1 4.66 -1 5.32 -1 6 C-2.32 6.33 -3.64 6.66 -5 7 C-4.21654285 5.82780457 -3.42297164 4.66236332 -2.625 3.5 C-2.18414062 2.8503125 -1.74328125 2.200625 -1.2890625 1.53125 C-0.65097656 0.77328125 -0.65097656 0.77328125 0 0 Z " fill="#2B85E6" transform="translate(428,332)"/>
<path d="M0 0 C2.875 0.3125 2.875 0.3125 6 1 C6.66 1.99 7.32 2.98 8 4 C5.03 3.505 5.03 3.505 2 3 C2 2.34 2 1.68 2 1 C1.34 0.67 0.68 0.34 0 0 Z " fill="#E8F4F8" transform="translate(604,329)"/>
<path d="M0 0 C0.99 0.33 1.98 0.66 3 1 C2.67 2.98 2.34 4.96 2 7 C0.4375 5.75 0.4375 5.75 -1 4 C-0.6875 1.8125 -0.6875 1.8125 0 0 Z " fill="#2283E3" transform="translate(540,548)"/>
<path d="M0 0 C-0.33 0.66 -0.66 1.32 -1 2 C-4.96 1.67 -8.92 1.34 -13 1 C-13 0.67 -13 0.34 -13 0 C-11.58456585 -0.19658808 -10.16755969 -0.38187546 -8.75 -0.5625 C-7.96109375 -0.66691406 -7.1721875 -0.77132812 -6.359375 -0.87890625 C-3.99467126 -1.00027349 -2.2488963 -0.69633257 0 0 Z " fill="#D8E8F2" transform="translate(612,230)"/>
<path d="M0 0 C-0.66 1.32 -1.32 2.64 -2 4 C-2.66 3.67 -3.32 3.34 -4 3 C-4.33 3.66 -4.66 4.32 -5 5 C-5.99 4.34 -6.98 3.68 -8 3 C-2.25 0 -2.25 0 0 0 Z " fill="#1D1D1D" transform="translate(580,706)"/>
<path d="M0 0 C1 3 1 3 -0.25 5.6875 C-0.8275 6.450625 -1.405 7.21375 -2 8 C-2.99 8 -3.98 8 -5 8 C-3.35 5.36 -1.7 2.72 0 0 Z " fill="#E9F3F5" transform="translate(644,620)"/>
<path d="M0 0 C1.04005702 3.38018531 1.08004482 6.4780279 1 10 C0.01 10.33 -0.98 10.66 -2 11 C-1.125 3.375 -1.125 3.375 0 0 Z " fill="#535353" transform="translate(556,579)"/>
<path d="M0 0 C0.99 0.99 1.98 1.98 3 3 C2.54625 3.433125 2.0925 3.86625 1.625 4.3125 C-0.20024334 6.10798342 -0.20024334 6.10798342 -2 9 C-1.125 2.25 -1.125 2.25 0 0 Z " fill="#3C3C3C" transform="translate(559,569)"/>
<path d="M0 0 C0.99 0.33 1.98 0.66 3 1 C2.34 2.65 1.68 4.3 1 6 C0.01 5.67 -0.98 5.34 -2 5 C-2 4.01 -2 3.02 -2 2 C-1.34 2 -0.68 2 0 2 C0 1.34 0 0.68 0 0 Z " fill="#1D83E5" transform="translate(644,387)"/>
<path d="M0 0 C0.66 0 1.32 0 2 0 C3.2077558 3.62326739 2.54311128 4.64146369 1 8 C0.34 7.67 -0.32 7.34 -1 7 C-0.67 4.69 -0.34 2.38 0 0 Z " fill="#1B7EDC" transform="translate(481,361)"/>
<path d="M0 0 C0 3.51716303 -0.82445585 4.37121748 -3 7 C-4.32 6.67 -5.64 6.34 -7 6 C-4.69 4.02 -2.38 2.04 0 0 Z " fill="#2985E5" transform="translate(449,311)"/>
<path d="M0 0 C0.66 0.33 1.32 0.66 2 1 C0.50260417 2.23697917 -0.99479167 3.47395833 -2.4921875 4.7109375 C-3.71051161 5.75250992 -4.86660097 6.86660097 -6 8 C-6.33 7.01 -6.66 6.02 -7 5 C-4.69 3.35 -2.38 1.7 0 0 Z " fill="#212121" transform="translate(330,211)"/>
</svg>
